{"title":"Endure 2010 DVDrip English Klam","uid":6712240,"size":1220761692,"categoryP":"video","categoryS":"movies","magnet":"?xt=urn:btih:59ac7d6b7b0779cbdbc51587651c5741c4448cf3&amp;dn=Endure+2010+DVDrip+English+Klam&amp;tr=udp%3A%2F%2Ftracker.openbittorrent.com%3A80&amp;tr=udp%3A%2F%2Fopen.demonii.com%3A1337&amp;tr=udp%3A%2F%2Ftracker.coppersurfer.tk%3A6969&amp;tr=udp%3A%2F%2Fexodus.desync.com%3A6969","seeders":0,"leechers":0,"uploader":"Klambake","files":-1,"time":1317399997,"description":"With: Joey Lauren Adams, Judd Nelson en Devon Sawa\n\nEen jonge vrouw is ontvoerd, gemarteld en vastgebonden aan een boom in een geÃƒÂ¯soleerd moeras in centraal Florida. De enige persoon die haar locatie weet is dood. De ervaren rechercheur Emory Lane wordt 's avonds laat gebeld als hij bij het bed van zijn zieke vrouw zit. Hij wordt opgeroepen om naar de plaats te komen van een gruwelijk auto ongeluk op een verlaten snelweg. In het wrak ontdekt hij een foto van een jonge vrouw die vastgebonden zit aan een boom. Hij moet alles in het werk stellen om de vrouw te identificeren en te vinden, voor het te laat is.\n\nAfter a shocking photo of a young woman is found inside the twisted metal of a fatal car crash, veteran detective Emory Lloyd must risk everything to identify and find the woman before it's too late. \n\n------------------ Dutch Friends ------------------\nYou can find my Friends at: http://www.Film-Test.nl \n------ They got my dutch subs ----- and more ------\n\nGeneral:\n\nComplete name                    : Endure\\Endure.avi\nFormat                           : AVI\nFormat/Info                      : Audio Video Interleave\nFile size                        : 1.14 GiB\nDuration                         : 1h 31mn\nOverall bit rate                 : 1 773 Kbps\n\nVideo:\n\nFormat                           : MPEG-4 Visual\nFormat profile                   : Simple@L3\nFormat settings, BVOP            : No\nFormat settings, QPel            : No\nFormat settings, GMC             : No warppoints\nFormat settings, Matrix          : Default (H.263)\nCodec ID                         : XVID\nCodec ID/Hint                    : XviD\nDuration                         : 1h 31mn\nBit rate                         : 1 442 Kbps\nWidth                            : 704 pixels\nHeight                           : 396 pixels\nDisplay aspect ratio             : 16:9\nFrame rate                       : 23.976 fps\nColor space                      : YUV\nChroma subsampling               : 4:2:0\nBit depth                        : 8 bits\nScan type                        : Progressive\nBits/(Pixel*Frame)               : 0.216\nStream size                      : 947 MiB (81%)\nWriting library                  : XviD 1.1.2 (UTC 2006-11-01)\n\nAudio:\n\nFormat                           : AC-3\nFormat/Info                      : Audio Coding 3\nMode extension                   : CM (complete main)\nCodec ID                         : 2000\nDuration                         : 1h 31mn\nBit rate mode                    : Constant\nBit rate                         : 320 Kbps\nChannel(s)                       : 6 channels\nChannel positions                : Front: L C R, Side: L R, LFE\nSampling rate                    : 48.0 KHz\nBit depth                        : 16 bits\nStream size                      : 210 MiB (18%)\nAlignment                        : Aligned on interleaves\nInterleave, duration             : 32 ms (0.77 video frame)\nInterleave, preload duration     : 64 ms\n\n\n","torrent":{"xt":"urn:btih:59ac7d6b7b0779cbdbc51587651c5741c4448cf3","amp;dn":"Endure+2010+DVDrip+English+Klam","amp;tr":["udp%3A%2F%2Ftracker.openbittorrent.com%3A80","udp%3A%2F%2Fopen.demonii.com%3A1337","udp%3A%2F%2Ftracker.coppersurfer.tk%3A6969","udp%3A%2F%2Fexodus.desync.com%3A6969"],"infoHash":"59ac7d6b7b0779cbdbc51587651c5741c4448cf3","infoHashBuffer":{"type":"Buffer","data":[89,172,125,107,123,7,121,203,219,197,21,135,101,28,87,65,196,68,140,243]},"announce":[],"urlList":[]}}